<svg width="82" height="72" viewBox="0 0 82 72" fill="none" xmlns="http://www.w3.org/2000/svg">
<path d="M49.8343 16.2774H40.3214L36.2653 23.3993L36.2559 23.4134L31.7533 31.3262L26.9123 39.8273V39.832L22.4379 47.6836H31.3867L35.7248 55.3045L35.8564 55.5351H17.6955L13.3198 47.8483L13.4138 47.6836L17.8835 39.832L22.4003 31.9005L27.2319 23.4134H27.2507L27.2413 23.3993L31.2927 16.2774L31.7533 15.4772L36.0538 7.92216L40.5658 0L45.0779 7.92216L49.3784 15.4772L49.8343 16.2774Z" fill="#172DF4"/>
<path d="M59.2673 63.7962L55.0231 71.2382H0L4.46972 63.3867L8.94414 55.5351H9.01464L13.4844 63.3867L13.4891 63.3961L13.4985 63.3867H50.0082L45.6748 55.7752L45.8111 55.5351L50.1868 47.8483L54.5625 55.5351L59.0323 63.3867L59.2673 63.7962Z" fill="#172DF4"/>
<path d="M81.1269 71.2382H64.7051L68.404 64.747L67.6332 63.3867L63.563 56.2459L63.1588 55.5351L58.689 47.6836L54.4825 40.298L54.2193 39.832L49.3736 31.3262L45.0778 38.8765L44.5326 39.832H35.5085L36.0537 38.8812L40.5658 30.9543L44.8569 23.4134H53.8997L58.9992 32.3712L63.2434 39.832L67.7178 47.6836L68.075 48.319L72.1875 55.5351L72.916 56.8202L76.6572 63.3867L81.1269 71.2382Z" fill="#FEAC00"/>
</svg>
