<svg width="1031" height="480" viewBox="0 0 1031 480" fill="none" xmlns="http://www.w3.org/2000/svg">
<path d="M0.111328 441.172C0.111328 454.564 0.111328 461.261 2.71768 466.376C5.0103 470.875 8.66851 474.534 13.168 476.826C18.2833 479.433 24.9795 479.433 38.372 479.433H981.388C1003.77 479.433 1014.96 479.433 1021.3 474.745C1026.82 470.658 1030.32 464.393 1030.9 457.545C1031.57 449.691 1025.7 440.163 1013.97 421.107L813.096 94.9779C809.461 89.0764 807.643 86.1257 805.206 83.8842C803.047 81.8988 800.541 80.3275 797.813 79.2488C794.734 78.0309 791.286 77.6802 784.391 76.9787L42.2446 1.47495C27.6475 -0.0101013 20.349 -0.752625 14.7062 1.63486C9.7498 3.73196 5.6457 7.43973 3.05769 12.1584C0.111328 17.5306 0.111328 24.8668 0.111328 39.5392V441.172Z" fill="white"/>
</svg>