<svg width="93" height="93" viewBox="0 0 93 93" fill="none" xmlns="http://www.w3.org/2000/svg">
<rect width="92.0337" height="92.0337" rx="15.3389" fill="white"/>
<g clip-path="url(#clip0_369_455)">
<path d="M28.3912 52.0975C26.9142 46.4072 25.2895 40.8666 23.6648 35.326C22.0401 35.4758 20.4154 35.1763 18.9384 35.326C18.4953 35.326 18.1999 35.4758 17.7568 35.7753C17.4614 35.7753 17.166 36.0747 17.0183 36.524C16.5752 37.2727 16.7229 38.1712 16.7229 39.2194V57.3386H21.1539V39.5189C22.7786 45.5087 24.2556 51.3488 25.8803 57.3386H30.7544C32.3791 51.3488 33.8561 45.5087 35.4808 39.5189V57.3386H39.9118V35.1763H32.8222C31.3452 40.8666 29.8682 46.4072 28.3912 52.0975Z" fill="#2F80ED"/>
<path d="M74.7694 36.0744C74.6217 35.7749 74.3263 35.6252 74.1786 35.4754C73.8832 35.3257 73.5878 35.1759 73.2924 35.1759C72.5539 35.0262 71.8154 35.1759 70.9292 35.1759V42.3637C70.3384 41.4652 69.5998 40.7165 68.4182 40.2673C67.3843 39.818 65.7596 39.6683 64.4303 39.9678C61.9194 40.5668 60.4424 42.214 59.7039 44.6099C58.9654 47.0058 58.9654 50.45 59.8516 52.6961C60.5901 54.9423 62.3625 56.4398 64.8734 57.0388C67.6797 57.6377 70.7815 57.1885 72.5539 55.9905C74.474 54.7926 75.3602 52.5464 75.3602 49.4017V37.8713C75.2125 37.1226 75.2125 36.5236 74.7694 36.0744ZM67.3843 53.7444C64.4303 53.8941 63.6918 51.6479 63.5441 48.8028C63.5441 47.4551 63.8395 46.1073 64.2826 45.2089C64.578 44.7596 64.8734 44.3104 65.3165 44.0109C65.7596 43.7114 66.3504 43.5617 67.0889 43.5617C69.8952 43.4119 70.7815 45.8079 70.9292 48.5033C71.0769 51.3484 70.0429 53.5946 67.3843 53.7444Z" fill="#2F80ED"/>
<path d="M48.9214 41.1657C45.2289 41.3154 43.0134 42.9626 41.9794 45.5083C41.5363 46.856 41.3886 48.5032 41.5363 50.1504C41.8317 53.4448 43.1611 55.691 45.9674 56.7392C47.4444 57.1884 49.2168 57.4879 51.1369 57.1884C54.534 56.7392 56.4541 54.9423 57.1926 52.0971C56.1587 52.2468 54.6817 51.9473 53.6478 52.0971C52.9093 52.0971 52.4662 52.5463 52.0231 52.9956C51.1369 53.5945 49.8076 54.0438 48.4783 53.7443C46.8536 53.2951 46.2628 52.0971 46.1151 50.3001H57.488C57.7834 44.6098 55.5679 40.8662 48.9214 41.1657ZM46.1151 47.455C46.4105 45.8078 47.149 44.4601 49.3645 44.3103C51.7277 44.1606 52.6139 45.658 52.7616 47.455H46.1151Z" fill="#2F80ED"/>
</g>
<defs>
<clipPath id="clip0_369_455">
<rect width="58.6667" height="22.2222" fill="white" transform="translate(16.6934 35.1162)"/>
</clipPath>
</defs>
</svg>