<svg width="69" height="111" viewBox="0 0 69 111" fill="none" xmlns="http://www.w3.org/2000/svg">
<path opacity="0.8" d="M45.9254 30.6943C52.3642 24.9954 58.1843 21.6055 66.9145 16.5205C69.8245 14.8256 68.1518 11.9026 65.8605 11.2887C61.2777 10.0607 59.605 7.1378 55.0223 5.90986C50.4395 4.68191 48.7668 1.75899 44.184 0.531047C41.8927 -0.082926 41.274 2.22602 42.9467 5.14894C44.6194 8.07186 49.2021 9.29981 53.7849 10.5278L56.0763 11.1417C53.7849 10.5277 51.4935 9.91378 48.5834 11.6088C43.382 12.6898 35.8892 13.1568 30.6878 14.2378C19.6662 18.7087 10.3173 26.1026 4.93256 37.0334C-0.452224 47.9642 0.418449 63.0458 2.52648 73.5095C3.5805 78.7414 6.30721 86.8962 9.6526 92.742C11.3253 95.665 12.998 98.5879 14.6707 101.511C16.3434 104.434 18.0161 107.357 19.6888 110.28C21.9802 110.894 24.2715 111.508 22.5988 108.585C20.9261 105.662 19.2535 102.739 19.8721 100.43C18.1994 97.5069 16.5267 94.584 14.854 91.661C11.5086 85.8152 10.4546 80.5833 9.40062 75.3515C4.38253 66.5827 5.18457 54.424 8.27797 42.8792C13.6628 31.9485 20.7202 23.9406 31.1231 21.7786C36.3245 20.6976 41.526 19.6166 46.7274 18.5356C49.0188 19.1496 51.3102 19.7636 51.9289 17.4546C49.0188 19.1496 43.1987 22.5395 40.2886 24.2345C39.0512 28.8524 43.0153 32.3893 45.9254 30.6943Z" fill="#FFA800"/>
</svg>