<svg width="1280" height="336" viewBox="0 0 1280 336" fill="none" xmlns="http://www.w3.org/2000/svg">
<g opacity="0.7">
<g opacity="0.1">
<path d="M579.214 76.798H534.659L515.658 110.304L515.625 110.37L494.516 147.573L471.854 187.57L471.838 187.603L450.892 224.527H492.8L513.125 260.367L513.746 261.468H428.672L408.184 225.3L408.609 224.527L429.554 187.603L450.713 150.285L473.341 110.37H473.423L473.39 110.288L492.375 76.798L494.516 73.035L514.661 37.4912L535.803 0.221924L556.928 37.4912L577.09 73.035L579.214 76.798Z" fill="white"/>
<path d="M623.392 300.315L603.525 335.333H345.787L366.733 298.392L387.679 261.468H388.006L408.951 298.392L408.984 298.441L409.017 298.392H580.03L559.738 262.585L560.359 261.468L580.864 225.3L601.368 261.468L622.298 298.392L623.392 300.315Z" fill="white"/>
<path d="M725.802 335.333H648.881L666.216 304.785L662.589 298.393L643.538 264.804L641.643 261.468L620.697 224.528L600.993 189.789L599.751 187.604L577.074 147.574L556.928 183.101L554.38 187.604H512.112L514.661 183.101L535.803 145.832L555.899 110.37H598.248L622.135 152.504L642.035 187.604L662.981 224.528L664.663 227.519L683.91 261.468L687.341 267.499L704.856 298.393L725.802 335.333Z" fill="white"/>
</g>
<g opacity="0.1">
<path d="M149.535 76.7983H104.981L85.9793 110.304L85.9466 110.37L64.8375 147.574L42.1762 187.571L42.1598 187.604L21.2141 224.528H63.1219L83.4468 260.367L84.0677 261.468H-1.00609L-21.4944 225.3L-21.0696 224.528L-0.123819 187.604L21.0343 150.285L43.663 110.37H43.7447L43.712 110.288L62.6971 76.7983L64.8375 73.0352L84.9826 37.4914L106.124 0.222168L127.25 37.4914L147.411 73.0352L149.535 76.7983Z" fill="white"/>
<path d="M193.714 300.315L173.847 335.333H-83.8906L-62.9449 298.392L-41.9991 261.468H-41.6723L-20.7266 298.392L-20.6939 298.442L-20.6612 298.392H150.352L130.06 262.586L130.681 261.468L151.186 225.3L171.69 261.468L192.62 298.392L193.714 300.315Z" fill="white"/>
<path d="M296.123 335.333H219.202L236.537 304.785L232.91 298.393L213.86 264.805L211.965 261.469L191.019 224.528L171.315 189.79L170.073 187.604L147.395 147.574L127.25 183.101L124.701 187.604H82.4341L84.9829 183.101L106.125 145.832L126.221 110.371H168.57L192.457 152.504L212.357 187.604L233.302 224.528L234.985 227.519L254.232 261.469L257.663 267.499L275.178 298.393L296.123 335.333Z" fill="white"/>
</g>
<g opacity="0.1">
<path d="M278.489 258.758L323.043 258.758L342.045 225.252L342.077 225.186L363.187 187.983L385.848 147.986L385.864 147.953L406.81 111.029L364.902 111.029L344.577 75.1893L343.956 74.0883L429.03 74.0883L449.518 110.257L449.094 111.029L428.148 147.953L406.99 185.272L384.361 225.186L384.279 225.186L384.312 225.269L365.327 258.758L363.187 262.521L343.041 298.065L321.9 335.334L300.774 298.065L280.613 262.521L278.489 258.758Z" fill="white"/>
<path d="M234.31 35.2418L254.177 0.223885L511.915 0.223907L490.969 37.1645L470.023 74.0886L469.696 74.0886L448.751 37.1645L448.718 37.1152L448.685 37.1645L277.672 37.1644L297.964 72.9712L297.343 74.0886L276.839 110.257L256.334 74.0886L235.405 37.1644L234.31 35.2418Z" fill="white"/>
<path d="M131.901 0.222454L208.822 0.222461L191.487 30.7707L195.114 37.163L214.164 70.7513L216.06 74.0872L237.005 111.028L256.709 145.766L257.951 147.952L280.629 187.982L300.774 152.454L303.323 147.952L345.59 147.952L343.041 152.454L321.899 189.724L301.803 225.185L259.454 225.185L235.568 183.052L215.668 147.952L194.722 111.028L193.039 108.037L173.792 74.0872L170.361 68.0564L152.847 37.163L131.901 0.222454Z" fill="white"/>
</g>
<g opacity="0.1">
<path d="M-151.19 258.758L-106.635 258.758L-87.6336 225.252L-87.6009 225.186L-66.4917 187.983L-43.8305 147.986L-43.8141 147.953L-22.8683 111.029L-64.7762 111.029L-85.1011 75.1893L-85.722 74.0883L-0.648182 74.0883L19.8401 110.257L19.4153 111.029L-1.53046 147.953L-22.6886 185.272L-45.3172 225.186L-45.3989 225.186L-45.3663 225.269L-64.3514 258.758L-66.4918 262.521L-86.6369 298.065L-107.779 335.334L-128.904 298.065L-149.066 262.521L-151.19 258.758Z" fill="white"/>
<path d="M-195.369 35.2418L-175.501 0.223885L82.2361 0.223907L61.2903 37.1645L40.3446 74.0886L40.0178 74.0886L19.072 37.1645L19.0393 37.1152L19.0067 37.1645L-152.007 37.1644L-131.715 72.9712L-132.335 74.0886L-152.84 110.257L-173.345 74.0886L-194.274 37.1644L-195.369 35.2418Z" fill="white"/>
</g>
</g>
<g opacity="0.7">
<g opacity="0.1">
<path d="M1433.44 76.7983H1388.88L1369.88 110.304L1369.85 110.37L1348.74 147.574L1326.08 187.571L1326.06 187.604L1305.11 224.528H1347.02L1367.35 260.367L1367.97 261.468H1282.89L1262.41 225.3L1262.83 224.528L1283.78 187.604L1304.93 150.285L1327.56 110.37H1327.65L1327.61 110.288L1346.6 76.7983L1348.74 73.0352L1368.88 37.4914L1390.03 0.222168L1411.15 37.4914L1431.31 73.0352L1433.44 76.7983Z" fill="white"/>
<path d="M1477.61 300.315L1457.75 335.333H1200.01L1220.96 298.392L1241.9 261.468H1242.23L1263.17 298.392L1263.21 298.442L1263.24 298.392H1434.25L1413.96 262.586L1414.58 261.468L1435.09 225.3L1455.59 261.468L1476.52 298.392L1477.61 300.315Z" fill="white"/>
</g>
<g opacity="0.1">
<path d="M1003.76 76.7983H959.203L940.201 110.304L940.169 110.37L919.06 147.574L896.398 187.571L896.382 187.604L875.436 224.528H917.344L937.669 260.367L938.29 261.468H853.216L832.728 225.3L833.153 224.528L854.098 187.604L875.257 150.285L897.885 110.37H897.967L897.934 110.288L916.919 76.7983L919.06 73.0352L939.205 37.4914L960.347 0.222168L981.472 37.4914L1001.63 73.0352L1003.76 76.7983Z" fill="white"/>
<path d="M1047.94 300.315L1028.07 335.333H770.332L791.277 298.392L812.223 261.468H812.55L833.496 298.392L833.528 298.442L833.561 298.392H1004.57L984.282 262.586L984.903 261.468L1005.41 225.3L1025.91 261.468L1046.84 298.392L1047.94 300.315Z" fill="white"/>
<path d="M1150.35 335.333H1073.42L1090.76 304.785L1087.13 298.393L1068.08 264.805L1066.19 261.469L1045.24 224.528L1025.54 189.79L1024.3 187.604L1001.62 147.574L981.472 183.101L978.924 187.604H936.656L939.205 183.101L960.347 145.832L980.443 110.371H1022.79L1046.68 152.504L1066.58 187.604L1087.52 224.528L1089.21 227.519L1108.45 261.469L1111.89 267.499L1129.4 298.393L1150.35 335.333Z" fill="white"/>
</g>
<g opacity="0.1">
<path d="M1132.71 258.758L1177.27 258.758L1196.27 225.252L1196.3 225.186L1217.41 187.983L1240.07 147.986L1240.09 147.953L1261.03 111.029L1219.12 111.029L1198.8 75.1893L1198.18 74.0883L1283.25 74.0883L1303.74 110.257L1303.32 111.029L1282.37 147.953L1261.21 185.272L1238.58 225.186L1238.5 225.186L1238.53 225.269L1219.55 258.758L1217.41 262.521L1197.26 298.065L1176.12 335.334L1155 298.065L1134.83 262.521L1132.71 258.758Z" fill="white"/>
<path d="M1088.53 35.2423L1108.4 0.224373L1366.14 0.224396L1345.19 37.165L1324.25 74.0891L1323.92 74.0891L1302.97 37.1649L1302.94 37.1157L1302.91 37.1649L1131.89 37.1649L1152.19 72.9716L1151.57 74.0891L1131.06 110.257L1110.56 74.0891L1089.63 37.1649L1088.53 35.2423Z" fill="white"/>
<path d="M986.123 0.222454L1063.04 0.222461L1045.71 30.7707L1049.34 37.163L1068.39 70.7513L1070.28 74.0872L1091.23 111.028L1110.93 145.766L1112.17 147.952L1134.85 187.982L1155 152.454L1157.54 147.952L1199.81 147.952L1197.26 152.454L1176.12 189.724L1156.03 225.185L1113.68 225.185L1089.79 183.052L1069.89 147.952L1048.94 111.028L1047.26 108.037L1028.01 74.0872L1024.58 68.0564L1007.07 37.163L986.123 0.222454Z" fill="white"/>
</g>
<g opacity="0.1">
<path d="M703.033 258.758L747.587 258.758L766.589 225.252L766.621 225.186L787.731 187.983L810.392 147.986L810.408 147.953L831.354 111.029L789.446 111.029L769.121 75.1893L768.5 74.0883L853.574 74.0883L874.062 110.257L873.638 111.029L852.692 147.953L831.534 185.272L808.905 225.186L808.823 225.186L808.856 225.269L789.871 258.758L787.731 262.521L767.585 298.065L746.444 335.334L725.318 298.065L705.157 262.521L703.033 258.758Z" fill="white"/>
<path d="M658.853 35.2418L678.721 0.223885L936.458 0.223907L915.513 37.1645L894.567 74.0886L894.24 74.0886L873.294 37.1645L873.262 37.1152L873.229 37.1645L702.215 37.1644L722.508 72.9712L721.887 74.0886L701.382 110.257L680.878 74.0886L659.948 37.1644L658.853 35.2418Z" fill="white"/>
<path d="M556.444 0.222454L633.365 0.222461L616.03 30.7707L619.658 37.163L638.708 70.7513L640.603 74.0872L661.549 111.028L681.253 145.766L682.495 147.952L705.173 187.982L725.318 152.454L727.866 147.952L770.134 147.952L767.585 152.454L746.443 189.724L726.347 225.185L683.998 225.185L660.111 183.052L640.211 147.952L619.265 111.028L617.583 108.037L598.336 74.0872L594.905 68.0564L577.39 37.163L556.444 0.222454Z" fill="white"/>
</g>
</g>
</svg>
